<svg xmlns="http://www.w3.org/2000/svg" viewBox="0 0 512 512"><defs><style>.a{fill:#1d1d1b;}</style></defs><path class="a" d="M180.33149,148.76412H155.20465v40.68711c0,26.91342,1.41194,31.495,35.385,31.495v28.67116H70.63208V220.94627c26.193,0,30.77462-3.51545,30.77462-31.495V56.41131c0-21.5826-7.7801-23.02337-30.77462-23.02337V5.09139H185.2877c38.92931,0,83.5064,14.49406,83.5064,67.94631C268.7941,128.93925,222.08469,148.76412,180.33149,148.76412Zm-25.12684-28.29655h19.47906c25.81841,0,38.55472-13.11093,38.55472-44.95176,0-29.36272-13.42788-42.12787-39.99548-42.12787h-18.0383Z"/><path class="a" d="M430.99477,122.57108c30.083,5.6766,52.01141,22.303,52.01141,60.88658,0,45.98911-39.2751,66.15977-83.16062,66.15977H271.73325V220.94627c21.95717,0,30.80343-2.10351,30.80343-29.01693V49.32277c0-15.21445-5.67659-15.93483-30.80343-15.93483V5.09139h124.568c41.40742,0,75.75512,18.41293,75.75512,57.31349,0,25.12688-10.97859,46.7383-39.99548,58.06269ZM377.9172,33.38794H355.96v77.85875h23.02334c22.64873,0,36.797-16.97217,36.797-42.44483C415.78036,46.15309,400.56594,33.38794,377.9172,33.38794Zm4.58162,106.52991H355.96v81.02842h24.43528c30.08305,0,43.51093-16.25179,43.51093-40.6871C423.90624,152.3084,406.21371,139.91785,382.49882,139.91785Z"/><path class="a" d="M135.196,362.5155h.3746L124.592,369.22944c13.45669,26.193,34.31889,54.8642,56.62184,76.101A117.49252,117.49252,0,0,0,198.56057,407.813c2.4781-15.56023-13.45669-14.83985-34.69348-15.21444V364.078H276.0446V392.5986c-21.58257.37459-34.31889,4.61043-39.96666,19.47909-6.397,18.03833-15.9348,36.797-29.73727,52.35727,11.32437,6.02239,20.86219,9.56666,29.73727,9.56666,18.38409,0,22.64873-9.56666,22.64873-29.73732h14.83982c-.34578,37.51743-16.28058,62.64431-43.16514,62.64431-14.86864,0-32.56116-6.714-50.94525-18.03833a119.47415,119.47415,0,0,1-62.64421,18.03833c-66.88,0-93.44764-33.62737-93.44764-70.07864,0-32.18661,24.43528-50.59954,50.97406-66.15976-9.56664-18.41294-14.86863-36.10549-14.86863-50.25376,0-38.92938,26.193-66.18859,70.07852-66.18859,35.73083,0,60.51189,20.17066,60.51189,47.42987C190.06009,327.85077,163.17552,344.823,135.196,362.5155Zm17.001,105.46374a364.321,364.321,0,0,1-62.29843-71.14481c-9.192,10.63282-14.494,22.303-14.494,34.69354,0,25.47266,23.7149,43.16521,49.5333,43.16521,9.22086,0,18.41291-1.41194,26.91339-5.302ZM115.02535,345.88911c16.28058-12.39055,27.97954-25.47266,27.97954-43.53981,0-11.32439-4.95621-23.34034-15.93479-23.34034-9.91243,0-18.4129,7.05973-18.4129,33.97316C108.6572,322.52,111.1353,333.84434,115.02535,345.88911Z"/><path class="a" d="M430.83977,375.25183c30.08305,5.6766,52.0114,22.303,52.0114,60.88658,0,45.9891-39.27509,66.15976-83.16062,66.15976H271.57824V473.627c21.95717,0,30.80344-2.10351,30.80344-29.01693V302.00351c0-15.21444-5.6766-15.93482-30.80344-15.93482V257.77214h124.568c41.40742,0,75.75512,18.41293,75.75512,57.31349,0,25.12688-10.97858,46.7383-39.99547,58.06269ZM377.7622,286.06869H355.805v77.85875h23.02333c22.64873,0,36.797-16.97217,36.797-42.44483C415.62535,298.83384,400.41093,286.06869,377.7622,286.06869Zm4.58161,106.52991H355.805V473.627H380.2403c30.08305,0,43.51093-16.25179,43.51093-40.6871C423.75123,404.98914,406.05871,392.5986,382.34381,392.5986Z"/></svg>