<svg xmlns="http://www.w3.org/2000/svg" viewBox="0 0 1839.009 298.4272"><defs><style>.a{fill:#1d1d1b;}</style></defs><path class="a" d="M1208.595,4.25H1239.59c16.1263,0,25.8479,10.2105,25.8479,24.7634s-9.7216,24.7635-25.8479,24.7635h-19.1V86.4033H1208.595Zm30.6515,38.9643c10.2934,0,14.2964-6.69,14.2964-14.2009s-4.003-14.2008-14.2964-14.2008H1220.49V43.214Z"/><path class="a" d="M1279.791,45.3265c0-24.1767,16.927-42.0157,39.8012-42.0157,22.76,0,39.6868,17.839,39.6868,42.0157s-16.9269,42.0157-39.6868,42.0157C1296.718,87.3422,1279.791,69.5031,1279.791,45.3265Zm67.3647,0c0-17.9564-11.6659-31.2184-27.5635-31.2184s-27.6778,13.262-27.6778,31.2184,11.78,31.2184,27.6778,31.2184S1347.1557,63.2829,1347.1557,45.3265Z"/><path class="a" d="M1379.18,4.25h11.8946V75.606h39.0006V86.4033H1379.18Z"/><path class="a" d="M1446.83,4.25h11.8946V86.4033H1446.83Z"/><path class="a" d="M1478.2822,45.3265c0-28.167,18.7569-42.0157,39.115-42.0157,18.185,0,32.5958,11.2668,34.7688,27.3454H1539.7c-1.3725-9.6237-10.7509-16.5481-22.4168-16.5481-15.5545,0-26.7628,10.9147-26.7628,31.2184s11.2083,31.2184,26.7628,31.2184c11.8946,0,21.3874-6.9244,22.6455-16.5481h12.009c-1.7156,16.0786-16.012,27.3454-34.54,27.3454C1496.81,87.3422,1478.2822,73.4935,1478.2822,45.3265Z"/><path class="a" d="M1589.3367,52.1335,1561.3157,4.25h13.2671l20.7012,36.2649L1616.1,4.25h13.2671l-28.1353,47.8838v34.27h-11.8946Z"/><path class="a" d="M1208.595,106.3549h29.6221c14.9826,0,24.7042,7.6286,24.7042,21.1252a18.2006,18.2006,0,0,1-10.2934,16.0787c7.8916,2.934,13.9533,9.6237,13.9533,20.8905,0,14.905-10.2934,24.0593-26.8773,24.0593H1208.595Zm29.05,33.2136c8.9209,0,13.7245-3.873,13.7245-11.5015,0-7.5112-4.8036-11.5016-13.8389-11.5016h-17.1557v23.0031Zm.4574,38.1427c11.2084,0,16.6982-4.8118,16.6982-13.7314s-5.49-13.7314-16.6982-13.7314h-17.7275v27.4628Z"/><path class="a" d="M1286.31,106.3549h11.8946v71.3563h39.0006v10.7974H1286.31Z"/><path class="a" d="M1349.1572,159.7548v-53.4h11.4371v53.752c0,11.7362,7.7772,18.4259,19.2143,18.4259,11.5515,0,19.3288-6.69,19.3288-18.4259v-53.752h11.4371v53.4c0,18.778-12.3521,29.6927-30.7659,29.6927C1361.5093,189.4475,1349.1572,178.5328,1349.1572,159.7548Z"/><path class="a" d="M1432.4766,106.3549h51.3526v10.7974h-39.458v23.59h31.9095v10.7973h-31.9095v26.1718h40.7161v10.7974h-52.6107Z"/><path class="a" d="M1504.9307,106.3549h30.9946c16.1264,0,25.8479,10.21,25.8479,24.7635s-9.7215,24.7634-25.8479,24.7634h-19.1v32.6268h-11.8946Zm30.6515,38.9643c10.2934,0,14.2964-6.69,14.2964-14.2008s-4.003-14.2009-14.2964-14.2009h-18.7569v28.4017Z"/><path class="a" d="M1635.3711,167.5007l1.6012,21.0079h-11.5515L1623.82,168.557c-.5719-7.2765-5.2611-12.44-12.1234-12.44h-20.0149v32.392h-11.8946V106.3549h31.3377c16.1263,0,25.9622,9.9758,25.9622,24.6461,0,8.8022-4.6892,14.905-11.78,18.5433C1631.1393,153.0651,1634.9136,159.52,1635.3711,167.5007Zm-43.69-22.1815h19.1c10.4077,0,14.4107-6.9244,14.4107-14.3182,0-7.5112-4.003-14.0835-14.4107-14.0835h-19.1Z"/><path class="a" d="M1661.6193,106.3549h11.8946v82.1537h-11.8946Z"/><path class="a" d="M1696.7312,106.3549h13.2671l38.5431,63.2583V106.3549h11.8946v82.1537h-13.1527l-38.6575-63.141v63.141h-11.8946Z"/><path class="a" d="M1802.0671,117.1523H1777.02V106.3549h61.9892v10.7974h-25.0473v71.3563h-11.8946Z"/><path class="a" d="M1162.0756,295.6259l-8.0059-8.92a29.7761,29.7761,0,0,1-22.6455,9.8584c-15.44,0-25.5048-8.8022-25.5048-23.4725,0-11.8536,7.6628-17.7217,16.1263-22.2988-4.9179-5.7508-9.0353-12.0883-9.0353-18.3085,0-11.8536,8.4635-19.9517,20.7012-19.9517,12.1233,0,20.5868,7.8633,20.5868,19.2475,0,12.0883-8.006,17.9564-16.5838,22.5335l15.3257,17.2523,4.1174-5.7507c5.1467-8.45,10.5221-9.6238,16.3551-9.6238V266.99c-4.918,0-8.8066,3.1688-10.98,6.807l-2.9736,5.0466,14.9826,16.7828Zm-14.6395-16.3134-18.4137-20.6557c-6.8623,3.6382-12.3521,7.5111-12.3521,14.5529,0,8.3327,5.49,13.2619,14.7539,13.2619A21.2257,21.2257,0,0,0,1147.4361,279.3125Zm-16.6982-32.9788c7.32-3.6382,13.3815-7.5112,13.3815-14.67,0-5.9855-4.2318-10.0931-10.4078-10.0931s-10.4078,4.46-10.4078,10.7973C1123.3038,236.9447,1127.1924,242.1087,1130.7379,246.3337Z"/><path class="a" d="M1208.595,210.6556h29.6221c14.9826,0,24.7042,7.6285,24.7042,21.1252a18.2,18.2,0,0,1-10.2934,16.0786c7.8916,2.9341,13.9533,9.6237,13.9533,20.8905,0,14.905-10.2934,24.0593-26.8773,24.0593H1208.595Zm29.05,33.2135c8.9209,0,13.7245-3.873,13.7245-11.5015,0-7.5112-4.8036-11.5015-13.8389-11.5015h-17.1557v23.003Zm.4574,38.1428c11.2084,0,16.6982-4.8119,16.6982-13.7314s-5.49-13.7314-16.6982-13.7314h-17.7275v27.4628Z"/><path class="a" d="M1286.31,210.6556h51.3527v10.7973h-39.4581v23.59h31.91V255.84h-31.91v26.1718h40.7161v10.7973H1286.31Z"/><path class="a" d="M1358.7644,210.6556h11.8946v71.3563h39v10.7973h-50.8951Z"/><path class="a" d="M1419.61,251.7324c0-24.1767,16.927-42.0157,39.8012-42.0157,22.76,0,39.6868,17.839,39.6868,42.0157s-16.9269,42.0157-39.6868,42.0157C1436.5368,293.7481,1419.61,275.909,1419.61,251.7324Zm67.3647,0c0-17.9565-11.6659-31.2184-27.5635-31.2184s-27.6778,13.2619-27.6778,31.2184,11.78,31.2184,27.6778,31.2184S1486.9745,269.6888,1486.9745,251.7324Z"/><path class="a" d="M129.56,173.87H99.884v48.0533c0,31.786,1.6676,37.1971,41.7913,37.1971v33.8619H0V259.12c30.9351,0,36.3462-4.1519,36.3462-37.1971V64.7971c0-25.49-9.1886-27.1917-36.3462-27.1917V4.1859H135.4134c45.9773,0,98.6248,17.1182,98.6248,80.2477C234.0382,150.4558,178.8723,173.87,129.56,173.87ZM99.884,140.45H122.89c30.4927,0,45.5349-15.4845,45.5349-53.09,0-34.6787-15.8589-49.7549-47.2365-49.7549H99.884Z"/><path class="a" d="M425.6045,142.9347c35.5294,6.7043,61.4278,26.3408,61.4278,71.91,0,54.3152-46.3857,78.1377-98.2164,78.1377H237.51V259.12c25.9324,0,36.38-2.4844,36.38-34.27V56.4252c0-17.969-6.7043-18.82-36.38-18.82V4.1859H384.63c48.904,0,89.47,21.7465,89.47,67.69,0,29.676-12.9662,55.2-47.2364,68.5746ZM362.9175,37.6054H336.9851V129.56h27.1916c26.7491,0,43.4589-20.0449,43.4589-50.1293C407.6356,52.6816,389.6667,37.6054,362.9175,37.6054Zm5.4111,125.8166H336.9851V259.12h28.8591c35.5295,0,51.3884-19.1941,51.3884-48.0533C417.2326,178.0558,396.3369,163.422,368.3286,163.422Z"/><path class="a" d="M632.6213,127.8925h.4424l-12.9662,7.93C635.99,166.7571,660.63,200.619,686.97,225.7007a138.7637,138.7637,0,0,0,20.4873-44.31c2.9267-18.3773-15.893-17.5265-40.9746-17.9689V129.7379H798.97V163.422c-25.49.4424-40.5321,5.4451-47.2024,23.0057-7.5551,21.304-18.82,43.4589-35.1211,61.8362,13.3746,7.1127,24.6392,11.2987,35.1211,11.2987,21.7124,0,26.7491-11.2987,26.7491-35.1211H796.043c-.4083,44.31-19.2281,73.9857-50.98,73.9857-17.5606,0-38.4562-7.93-60.1686-21.3041a141.1043,141.1043,0,0,1-73.9857,21.3041c-78.9883,0-110.3658-39.7154-110.3658-82.766,0-38.0138,28.8591-59.76,60.2026-78.1376-11.2986-21.7465-17.56-42.6422-17.56-59.3519C543.1851,32.1943,574.12,0,625.951,0c42.2,0,71.4672,23.8224,71.4672,56.0168C697.4182,86.9519,665.6664,106.9968,632.6213,127.8925ZM652.7,252.45a430.2794,430.2794,0,0,1-73.5773-84.0252c-10.8562,12.5578-17.1181,26.3408-17.1181,40.9746,0,30.0844,28.0084,50.98,58.5011,50.98,10.89,0,21.7464-1.6675,31.7859-6.2619ZM608.7989,108.256c19.228-14.6338,33.045-30.0843,33.045-51.4224,0-13.3746-5.8535-27.566-18.82-27.566-11.707,0-21.7464,8.3378-21.7464,40.1238C601.2778,80.656,604.2045,94.0306,608.7989,108.256Z"/><path class="a" d="M981.79,142.9347c35.5295,6.7043,61.4278,26.3408,61.4278,71.91,0,54.3152-46.3856,78.1377-98.2164,78.1377H793.6948V259.12c25.9324,0,36.38-2.4844,36.38-34.27V56.4252c0-17.969-6.7043-18.82-36.38-18.82V4.1859H940.8153c48.904,0,89.47,21.7465,89.47,67.69,0,29.676-12.9662,55.2-47.2365,68.5746ZM919.1028,37.6054H893.17V129.56H920.362c26.7492,0,43.4589-20.0449,43.4589-50.1293C963.8209,52.6816,945.852,37.6054,919.1028,37.6054Zm5.4111,125.8166H893.17V259.12H922.03c35.5294,0,51.3883-19.1941,51.3883-48.0533C973.4179,178.0558,952.5223,163.422,924.5139,163.422Z"/></svg>