<svg xmlns="http://www.w3.org/2000/svg" viewBox="0 0 1054.7134 438.4363"><defs><style>.a{fill:#1d1d1b;}</style></defs><path class="a" d="M.0086,330.6484H18.52c9.6312,0,15.4373,5.9426,15.4373,14.4127S28.1509,359.4738,18.52,359.4738H7.1125V378.463H.0086Zm18.3062,22.6778c6.1476,0,8.5383-3.8935,8.5383-8.2651s-2.3907-8.2651-8.5383-8.2651H7.1125v16.53Z"/><path class="a" d="M42.53,354.5557c0-14.0712,10.1094-24.4538,23.7707-24.4538,13.593,0,23.7024,10.3826,23.7024,24.4538S79.8932,379.01,66.3,379.01C52.6389,379.01,42.53,368.6269,42.53,354.5557Zm40.2326,0c0-10.4509-6.9673-18.17-16.4619-18.17s-16.53,7.7187-16.53,18.17,7.0356,18.17,16.53,18.17S82.7621,365.0066,82.7621,354.5557Z"/><path class="a" d="M101.8879,330.6484h7.1039v41.53h23.2926v6.2842H101.8879Z"/><path class="a" d="M142.2913,330.6484h7.1039V378.463h-7.1039Z"/><path class="a" d="M161.0757,354.5557c0-16.3936,11.2022-24.4538,23.3608-24.4538,10.8608,0,19.4674,6.5574,20.7652,15.9155h-7.4454c-.82-5.6012-6.4208-9.6313-13.3881-9.6313-9.29,0-15.9837,6.3525-15.9837,18.17s6.694,18.17,15.9837,18.17c7.1039,0,12.7734-4.03,13.5247-9.6313h7.1722c-1.0246,9.358-9.5629,15.9155-20.6286,15.9155C172.1413,379.01,161.0757,370.9493,161.0757,354.5557Z"/><path class="a" d="M227.4014,358.5175l-16.7351-27.8691H218.59l12.3635,21.1067,12.4318-21.1067h7.9236l-16.8034,27.8691V378.463h-7.1039Z"/><path class="a" d="M280.51,330.6484h17.6914c8.9482,0,14.7543,4.44,14.7543,12.2952a10.5862,10.5862,0,0,1-6.1476,9.358c4.7131,1.7076,8.3334,5.6011,8.3334,12.1586,0,8.6749-6.1476,14.0028-16.0521,14.0028H280.51Zm17.35,19.3307c5.3279,0,8.1968-2.2541,8.1968-6.694,0-4.3716-2.8689-6.6941-8.2651-6.6941h-10.246v13.3881Zm.2732,22.2c6.6941,0,9.9728-2.8006,9.9728-7.9919s-3.2787-7.9919-9.9728-7.9919H287.5454v15.9838Z"/><path class="a" d="M326.9242,330.6484h7.1039v41.53h23.2925v6.2842H326.9242Z"/><path class="a" d="M364.4587,361.7279V330.6484h6.8306v31.2844c0,6.8307,4.6449,10.7242,11.4755,10.7242,6.899,0,11.5439-3.8935,11.5439-10.7242V330.6484h6.8306v31.0795c0,10.9291-7.3771,17.2816-18.3745,17.2816C371.8358,379.01,364.4587,372.657,364.4587,361.7279Z"/><path class="a" d="M414.22,330.6484h30.67v6.2842H421.3239v13.73h19.0576v6.2842H421.3239v15.2324h24.3172v6.2842H414.22Z"/><path class="a" d="M457.4923,330.6484h18.5111c9.6312,0,15.4373,5.9426,15.4373,14.4127s-5.8061,14.4127-15.4373,14.4127H464.5962V378.463h-7.1039Zm18.3062,22.6778c6.1476,0,8.5383-3.8935,8.5383-8.2651s-2.3907-8.2651-8.5383-8.2651H464.5962v16.53Z"/><path class="a" d="M535.396,366.2361l.9563,12.2269h-6.899l-.9563-11.6121c-.3415-4.235-3.1421-7.24-7.24-7.24H509.3029V378.463H502.199V330.6484h18.716c9.6312,0,15.5056,5.806,15.5056,14.3444,0,5.123-2.8006,8.6749-7.0356,10.7924A12.6311,12.6311,0,0,1,535.396,366.2361Zm-26.0931-12.91H520.71c6.2159,0,8.6066-4.03,8.6066-8.3334,0-4.3717-2.3907-8.1968-8.6066-8.1968H509.3029Z"/><path class="a" d="M551.0724,330.6484h7.1039V378.463h-7.1039Z"/><path class="a" d="M572.0425,330.6484h7.9236l23.0193,36.8172V330.6484h7.1039V378.463h-7.8552l-23.0877-36.749v36.749h-7.1039Z"/><path class="a" d="M634.9529,336.9326H619.9938v-6.2842H657.016v6.2842H642.0568v41.53h-7.1039Z"/><path class="a" d="M718.731,378.463l-4.7814-5.1913a18.0056,18.0056,0,0,1-13.5247,5.7378c-9.2214,0-15.2324-5.123-15.2324-13.6614,0-6.8989,4.5765-10.3143,9.6312-12.9782-2.9372-3.3471-5.3962-7.0356-5.3962-10.6559,0-6.8989,5.0547-11.6121,12.3635-11.6121,7.24,0,12.2952,4.5765,12.2952,11.2023,0,7.0356-4.7815,10.4509-9.9045,13.1149l9.1531,10.0411,2.459-3.3471c3.0738-4.9181,6.2843-5.6011,9.7679-5.6011v6.2842a7.8478,7.8478,0,0,0-6.5574,3.9618l-1.776,2.9372,8.9482,9.7678Zm-8.7432-9.4946L698.99,356.9464c-4.0984,2.1175-7.3771,4.3716-7.3771,8.47,0,4.85,3.2787,7.7187,8.8116,7.7187A12.8331,12.8331,0,0,0,709.9878,368.9684Zm-9.9728-19.1942c4.3716-2.1175,7.9919-4.3716,7.9919-8.5383,0-3.4837-2.5274-5.8744-6.2159-5.8744a5.9706,5.9706,0,0,0-6.2159,6.2842C695.5751,344.31,697.8975,347.3152,700.015,349.7742Z"/><path class="a" d="M.0086,390.0752H17.7c8.9482,0,14.7543,4.44,14.7543,12.2952a10.5862,10.5862,0,0,1-6.1476,9.358C31.02,413.436,34.64,417.33,34.64,423.887c0,8.6749-6.1476,14.0028-16.0521,14.0028H.0086Zm17.35,19.3307c5.3279,0,8.1968-2.2541,8.1968-6.694,0-4.3716-2.8689-6.6941-8.2651-6.6941H7.0442v13.3881Zm.2732,22.2c6.6941,0,9.9728-2.8006,9.9728-7.9919s-3.2787-7.9919-9.9728-7.9919H7.0442v15.9838Z"/><path class="a" d="M46.423,390.0752h30.67v6.2842H53.5269v13.73H72.5844v6.2842H53.5269v15.2324H77.844V437.89H46.423Z"/><path class="a" d="M89.6952,390.0752h7.1039v41.53h23.2926V437.89H89.6952Z"/><path class="a" d="M126.0343,413.9825c0-14.0712,10.1094-24.4538,23.7708-24.4538,13.593,0,23.7024,10.3826,23.7024,24.4538s-10.1094,24.4538-23.7024,24.4538C136.1437,438.4363,126.0343,428.0537,126.0343,413.9825Zm40.2327,0c0-10.4509-6.9673-18.17-16.4619-18.17s-16.53,7.7187-16.53,18.17,7.0356,18.17,16.53,18.17S166.267,424.4334,166.267,413.9825Z"/><path class="a" d="M205.3042,390.0752h7.1039V437.89h-7.1039Z"/><path class="a" d="M226.2743,390.0752h7.9236l23.0193,36.8172V390.0752h7.1039V437.89h-7.8552l-23.0877-36.749V437.89h-7.1039Z"/><path class="a" d="M273.9524,390.0752h7.1722l14.1394,39.2763,14.2078-39.2763h7.1722L298.816,437.89H291.78Z"/><path class="a" d="M326.2411,390.0752h30.67v6.2842H333.345v13.73h19.0575v6.2842H333.345v15.2324h24.3172V437.89H326.2411Z"/><path class="a" d="M366.8494,422.0427h6.899c.5464,6.1476,4.5765,10.1094,11.3389,10.1094,6.0109,0,10.3826-2.3225,10.3826-7.5138,0-11.4755-27.1178-4.5765-27.1178-22.2,0-7.65,6.6941-12.91,16.3253-12.91,9.7679,0,16.4619,5.6695,17.0767,14.4127h-6.899c-.4781-4.9181-4.3033-8.1285-10.1777-8.1285-5.7377,0-9.2214,2.5957-9.2214,6.6258,0,11.6121,27.2544,3.8934,27.2544,22.1313,0,8.7433-7.3771,13.8663-17.6231,13.8663C374.2948,438.4363,367.3958,431.9471,366.8494,422.0427Z"/><path class="a" d="M423.7147,396.3594H408.7555v-6.2842h37.0222v6.2842H430.8186v41.53h-7.1039Z"/><path class="a" d="M455.5456,390.0752h8.7432L479.5212,428.19l15.2324-38.1151h8.7432V437.89h-6.8306V402.302L482.39,437.89h-5.7378L462.3079,402.302V437.89h-6.7623Z"/><path class="a" d="M517.5338,390.0752h30.67v6.2842H524.6377v13.73h19.0576v6.2842H524.6377v15.2324h24.3172V437.89H517.5338Z"/><path class="a" d="M560.8061,390.0752H568.73l23.0193,36.8172V390.0752h7.1039V437.89h-7.8553L567.91,401.1408V437.89h-7.1039Z"/><path class="a" d="M623.7165,396.3594H608.7573v-6.2842H645.78v6.2842H630.82v41.53h-7.1039Z"/><path class="a" d="M708.6558,425.6629l.9563,12.2269h-6.899l-.9563-11.6121c-.3415-4.235-3.1421-7.24-7.24-7.24H682.5627V437.89h-7.1039V390.0752h18.716c9.6312,0,15.5056,5.806,15.5056,14.3444,0,5.123-2.8006,8.6749-7.0356,10.7924A12.6311,12.6311,0,0,1,708.6558,425.6629Zm-26.0931-12.91H693.97c6.2159,0,8.6066-4.03,8.6066-8.3334,0-4.3717-2.3907-8.1968-8.6066-8.1968H682.5627Z"/><path class="a" d="M724.3322,390.0752h30.67v6.2842H731.4361v13.73h19.0575v6.2842H731.4361v15.2324h24.3171V437.89h-31.421Z"/><path class="a" d="M764.9405,422.0427h6.8989c.5465,6.1476,4.5766,10.1094,11.3389,10.1094,6.011,0,10.3827-2.3225,10.3827-7.5138,0-11.4755-27.1178-4.5765-27.1178-22.2,0-7.65,6.6941-12.91,16.3253-12.91,9.7679,0,16.4619,5.6695,17.0767,14.4127h-6.899c-.4782-4.9181-4.3033-8.1285-10.1777-8.1285-5.7378,0-9.2214,2.5957-9.2214,6.6258,0,11.6121,27.2544,3.8934,27.2544,22.1313,0,8.7433-7.3772,13.8663-17.6232,13.8663C772.3859,438.4363,765.4869,431.9471,764.9405,422.0427Z"/><path class="a" d="M812.2428,390.0752h30.67v6.2842H819.3467v13.73h19.0576v6.2842H819.3467v15.2324h24.3172V437.89H812.2428Z"/><path class="a" d="M883.3159,425.7312H863.0288L858.4523,437.89h-7.3089l18.7844-47.8146h6.5574L895.27,437.89h-7.3771Zm-2.3225-6.2159-7.7869-20.56-7.787,20.56Z"/><path class="a" d="M937.79,425.6629l.9563,12.2269h-6.899l-.9563-11.6121c-.3415-4.235-3.1421-7.24-7.24-7.24H911.6973V437.89h-7.1039V390.0752h18.716c9.6312,0,15.5056,5.806,15.5056,14.3444,0,5.123-2.8006,8.6749-7.0356,10.7924A12.6311,12.6311,0,0,1,937.79,425.6629Zm-26.0931-12.91h11.4072c6.2159,0,8.6066-4.03,8.6066-8.3334,0-4.3717-2.3907-8.1968-8.6066-8.1968H911.6973Z"/><path class="a" d="M949.0952,413.9825c0-16.3936,11.2023-24.4538,23.3608-24.4538,10.8608,0,19.4674,6.5574,20.7653,15.9155h-7.4455c-.82-5.6012-6.4208-9.6313-13.3881-9.6313-9.29,0-15.9837,6.3525-15.9837,18.17s6.694,18.17,15.9837,18.17c7.1039,0,12.7734-4.03,13.5247-9.6313h7.1722c-1.0246,9.358-9.5629,15.9155-20.6286,15.9155C960.1608,438.4363,949.0952,430.3761,949.0952,413.9825Z"/><path class="a" d="M1042.402,390.0752V437.89h-7.1039V416.4415h-23.7024V437.89h-7.1039V390.0752h7.1039v20.0821h23.7024V390.0752Z"/><path class="a" d="M130.9876,175.7856H100.9847v48.5828c0,32.1362,1.6859,37.6069,42.2518,37.6069V296.21H0v-34.235c31.276,0,36.7467-4.1977,36.7467-37.6069V65.511C36.7467,39.74,27.4568,38.02,0,38.02V4.2321H136.9056c46.4839,0,99.7116,17.3067,99.7116,81.1318C236.6172,152.1136,180.8434,175.7856,130.9876,175.7856Zm-30.0029-33.7877h23.2591c30.8287,0,46.0366-15.6552,46.0366-53.675,0-35.0608-16.0336-50.3031-47.7569-50.3031H100.9847Z"/><path class="a" d="M430.2944,144.51c35.921,6.7782,62.1048,26.6311,62.1048,72.7021,0,54.9137-46.8968,78.9986-99.2988,78.9986H240.1267v-34.235c26.2182,0,36.7812-2.5117,36.7812-34.6479V57.0469c0-18.1669-6.7782-19.0271-36.7812-19.0271V4.2321H388.8684c49.4429,0,90.4561,21.9861,90.4561,68.4356,0,30.0029-13.1091,55.8082-47.757,69.33ZM366.9167,38.02H340.6985v92.9678H368.19c27.044,0,43.9378-20.2657,43.9378-50.6815C412.1275,53.2621,393.9606,38.02,366.9167,38.02Zm5.4707,127.2028H340.6985v96.7527h29.1772c35.9209,0,51.9546-19.4056,51.9546-48.5828C421.83,180.0177,400.7044,165.2226,372.3874,165.2226Z"/><path class="a" d="M639.5925,129.3017h.4473l-13.1091,8.0168c16.0681,31.276,40.9788,65.5111,67.61,90.869A140.2931,140.2931,0,0,0,715.2536,183.39c2.959-18.58-16.0681-17.72-41.4261-18.167V131.1674H807.7741v34.0552c-25.7709.4473-40.9788,5.5052-47.7226,23.2592-7.6383,21.5388-19.0271,43.9378-35.508,62.5176,13.5219,7.1911,24.9107,11.4232,35.508,11.4232,21.9517,0,27.044-11.4232,27.044-35.5081h17.72c-.4129,44.798-19.44,74.8009-51.5418,74.8009-17.754,0-38.88-8.0168-60.8316-21.5388a142.659,142.659,0,0,1-74.8009,21.5388c-79.8588,0-111.5821-40.153-111.5821-83.6779,0-38.4327,29.1772-60.4188,60.8661-78.9986-11.4231-21.9861-17.754-43.112-17.754-60.0059C549.1708,32.5491,580.4468,0,632.8487,0c42.6647,0,72.2548,24.0849,72.2548,56.634C705.1035,87.91,673.0017,108.1758,639.5925,129.3017Zm20.3,125.93a435.0192,435.0192,0,0,1-74.388-84.951c-10.9758,12.6962-17.3067,26.631-17.3067,41.4261,0,30.4158,28.317,51.5417,59.1457,51.5417,11.01,0,21.9861-1.6859,32.1361-6.3309ZM615.5075,109.4488c19.44-14.795,33.4093-30.4158,33.4093-51.989,0-13.522-5.918-27.87-19.0271-27.87-11.836,0-21.9861,8.43-21.9861,40.5659C607.9036,81.5447,610.8626,95.0667,615.5075,109.4488Z"/><path class="a" d="M992.6087,144.51c35.921,6.7782,62.1047,26.6311,62.1047,72.7021,0,54.9137-46.8968,78.9986-99.2987,78.9986H802.441v-34.235c26.2182,0,36.7811-2.5117,36.7811-34.6479V57.0469c0-18.1669-6.7782-19.0271-36.7811-19.0271V4.2321H951.1826c49.4429,0,90.4561,21.9861,90.4561,68.4356,0,30.0029-13.109,55.8082-47.7569,69.33ZM929.2309,38.02H903.0128v92.9678H930.504c27.0439,0,43.9378-20.2657,43.9378-50.6815C974.4418,53.2621,956.2749,38.02,929.2309,38.02Zm5.4708,127.2028H903.0128v96.7527H932.19c35.921,0,51.9547-19.4056,51.9547-48.5828C984.1446,180.0177,963.0187,165.2226,934.7017,165.2226Z"/></svg>